<mxfile host="app.diagrams.net" modified="2022-08-16T05:25:23.206Z" agent="5.0 (Windows NT 10.0; Win64; x64) AppleWebKit/537.36 (KHTML, like Gecko) Chrome/104.0.0.0 Safari/537.36" etag="nOwmApTsC7Hn34VmvY8H" version="20.2.3" type="github">
  <diagram name="Page-1" id="2c0d36ab-eaac-3732-788b-9136903baeff">
    <mxGraphModel dx="2370" dy="1228" grid="1" gridSize="10" guides="1" tooltips="1" connect="1" arrows="1" fold="1" page="1" pageScale="1.5" pageWidth="3300" pageHeight="2339" background="none" math="0" shadow="0">
      <root>
        <mxCell id="0" />
        <mxCell id="1" parent="0" />
        <mxCell id="lxInUS8yCmYX_BWRTLFn-183" style="edgeStyle=orthogonalEdgeStyle;rounded=0;orthogonalLoop=1;jettySize=auto;html=1;fontSize=18;" edge="1" parent="1" source="lxInUS8yCmYX_BWRTLFn-144">
          <mxGeometry relative="1" as="geometry">
            <mxPoint x="140" y="150" as="targetPoint" />
          </mxGeometry>
        </mxCell>
        <mxCell id="lxInUS8yCmYX_BWRTLFn-184" style="edgeStyle=orthogonalEdgeStyle;rounded=0;orthogonalLoop=1;jettySize=auto;html=1;entryX=0.5;entryY=0;entryDx=0;entryDy=0;fontSize=18;" edge="1" parent="1" source="lxInUS8yCmYX_BWRTLFn-144" target="lxInUS8yCmYX_BWRTLFn-146">
          <mxGeometry relative="1" as="geometry" />
        </mxCell>
        <mxCell id="lxInUS8yCmYX_BWRTLFn-185" style="edgeStyle=orthogonalEdgeStyle;rounded=0;orthogonalLoop=1;jettySize=auto;html=1;fontSize=18;" edge="1" parent="1" source="lxInUS8yCmYX_BWRTLFn-144">
          <mxGeometry relative="1" as="geometry">
            <mxPoint x="730" y="150" as="targetPoint" />
          </mxGeometry>
        </mxCell>
        <mxCell id="lxInUS8yCmYX_BWRTLFn-186" style="edgeStyle=orthogonalEdgeStyle;rounded=0;orthogonalLoop=1;jettySize=auto;html=1;fontSize=18;" edge="1" parent="1" source="lxInUS8yCmYX_BWRTLFn-144">
          <mxGeometry relative="1" as="geometry">
            <mxPoint x="1120" y="150" as="targetPoint" />
          </mxGeometry>
        </mxCell>
        <mxCell id="lxInUS8yCmYX_BWRTLFn-187" style="edgeStyle=orthogonalEdgeStyle;rounded=0;orthogonalLoop=1;jettySize=auto;html=1;entryX=0.5;entryY=0;entryDx=0;entryDy=0;fontSize=18;" edge="1" parent="1" source="lxInUS8yCmYX_BWRTLFn-144" target="lxInUS8yCmYX_BWRTLFn-149">
          <mxGeometry relative="1" as="geometry" />
        </mxCell>
        <mxCell id="lxInUS8yCmYX_BWRTLFn-188" style="edgeStyle=orthogonalEdgeStyle;rounded=0;orthogonalLoop=1;jettySize=auto;html=1;fontSize=18;" edge="1" parent="1" source="lxInUS8yCmYX_BWRTLFn-144">
          <mxGeometry relative="1" as="geometry">
            <mxPoint x="1590" y="150" as="targetPoint" />
          </mxGeometry>
        </mxCell>
        <mxCell id="lxInUS8yCmYX_BWRTLFn-189" style="edgeStyle=orthogonalEdgeStyle;rounded=0;orthogonalLoop=1;jettySize=auto;html=1;fontSize=18;" edge="1" parent="1" source="lxInUS8yCmYX_BWRTLFn-144">
          <mxGeometry relative="1" as="geometry">
            <mxPoint x="1800" y="150" as="targetPoint" />
          </mxGeometry>
        </mxCell>
        <mxCell id="lxInUS8yCmYX_BWRTLFn-190" style="edgeStyle=orthogonalEdgeStyle;rounded=0;orthogonalLoop=1;jettySize=auto;html=1;fontSize=18;" edge="1" parent="1" source="lxInUS8yCmYX_BWRTLFn-144">
          <mxGeometry relative="1" as="geometry">
            <mxPoint x="2080" y="150" as="targetPoint" />
          </mxGeometry>
        </mxCell>
        <mxCell id="lxInUS8yCmYX_BWRTLFn-144" value="Src" style="rounded=0;whiteSpace=wrap;html=1;fontSize=18;" vertex="1" parent="1">
          <mxGeometry x="730" y="40" width="100" height="50" as="geometry" />
        </mxCell>
        <mxCell id="lxInUS8yCmYX_BWRTLFn-152" value="" style="edgeStyle=orthogonalEdgeStyle;rounded=0;orthogonalLoop=1;jettySize=auto;html=1;fontSize=18;" edge="1" parent="1" source="lxInUS8yCmYX_BWRTLFn-145" target="lxInUS8yCmYX_BWRTLFn-151">
          <mxGeometry relative="1" as="geometry" />
        </mxCell>
        <mxCell id="lxInUS8yCmYX_BWRTLFn-145" value="Components" style="rounded=0;whiteSpace=wrap;html=1;fontSize=18;" vertex="1" parent="1">
          <mxGeometry x="80" y="160" width="130" height="50" as="geometry" />
        </mxCell>
        <mxCell id="lxInUS8yCmYX_BWRTLFn-154" value="" style="edgeStyle=orthogonalEdgeStyle;rounded=0;orthogonalLoop=1;jettySize=auto;html=1;fontSize=18;" edge="1" parent="1" source="lxInUS8yCmYX_BWRTLFn-146" target="lxInUS8yCmYX_BWRTLFn-153">
          <mxGeometry relative="1" as="geometry" />
        </mxCell>
        <mxCell id="lxInUS8yCmYX_BWRTLFn-146" value="Context" style="rounded=0;whiteSpace=wrap;html=1;fontSize=18;" vertex="1" parent="1">
          <mxGeometry x="360" y="160" width="100" height="50" as="geometry" />
        </mxCell>
        <mxCell id="lxInUS8yCmYX_BWRTLFn-156" value="" style="edgeStyle=orthogonalEdgeStyle;rounded=0;orthogonalLoop=1;jettySize=auto;html=1;fontSize=18;" edge="1" parent="1" source="lxInUS8yCmYX_BWRTLFn-147" target="lxInUS8yCmYX_BWRTLFn-155">
          <mxGeometry relative="1" as="geometry" />
        </mxCell>
        <mxCell id="lxInUS8yCmYX_BWRTLFn-147" value="Features" style="rounded=0;whiteSpace=wrap;html=1;fontSize=18;" vertex="1" parent="1">
          <mxGeometry x="675" y="160" width="100" height="50" as="geometry" />
        </mxCell>
        <mxCell id="lxInUS8yCmYX_BWRTLFn-168" value="" style="edgeStyle=orthogonalEdgeStyle;rounded=0;orthogonalLoop=1;jettySize=auto;html=1;fontSize=18;" edge="1" parent="1" source="lxInUS8yCmYX_BWRTLFn-148" target="lxInUS8yCmYX_BWRTLFn-167">
          <mxGeometry relative="1" as="geometry" />
        </mxCell>
        <mxCell id="lxInUS8yCmYX_BWRTLFn-170" style="edgeStyle=orthogonalEdgeStyle;rounded=0;orthogonalLoop=1;jettySize=auto;html=1;entryX=0.5;entryY=0;entryDx=0;entryDy=0;fontSize=18;" edge="1" parent="1" source="lxInUS8yCmYX_BWRTLFn-148" target="lxInUS8yCmYX_BWRTLFn-169">
          <mxGeometry relative="1" as="geometry" />
        </mxCell>
        <mxCell id="lxInUS8yCmYX_BWRTLFn-148" value="Hooks" style="rounded=0;whiteSpace=wrap;html=1;fontSize=18;" vertex="1" parent="1">
          <mxGeometry x="1080" y="160" width="100" height="50" as="geometry" />
        </mxCell>
        <mxCell id="lxInUS8yCmYX_BWRTLFn-172" value="" style="edgeStyle=orthogonalEdgeStyle;rounded=0;orthogonalLoop=1;jettySize=auto;html=1;fontSize=18;" edge="1" parent="1" source="lxInUS8yCmYX_BWRTLFn-149" target="lxInUS8yCmYX_BWRTLFn-171">
          <mxGeometry relative="1" as="geometry" />
        </mxCell>
        <mxCell id="lxInUS8yCmYX_BWRTLFn-149" value="Lib&lt;br&gt;(To use 3rd party function across app" style="rounded=0;whiteSpace=wrap;html=1;fontSize=18;" vertex="1" parent="1">
          <mxGeometry x="1300" y="160" width="180" height="80" as="geometry" />
        </mxCell>
        <mxCell id="lxInUS8yCmYX_BWRTLFn-173" style="edgeStyle=orthogonalEdgeStyle;rounded=0;orthogonalLoop=1;jettySize=auto;html=1;fontSize=18;" edge="1" parent="1" source="lxInUS8yCmYX_BWRTLFn-150">
          <mxGeometry relative="1" as="geometry">
            <mxPoint x="1600" y="290" as="targetPoint" />
          </mxGeometry>
        </mxCell>
        <mxCell id="lxInUS8yCmYX_BWRTLFn-150" value="Pages" style="rounded=0;whiteSpace=wrap;html=1;fontSize=18;" vertex="1" parent="1">
          <mxGeometry x="1550" y="160" width="100" height="50" as="geometry" />
        </mxCell>
        <mxCell id="lxInUS8yCmYX_BWRTLFn-151" value="Components&lt;br&gt;(Commonly used Components)" style="rounded=0;whiteSpace=wrap;html=1;fontSize=18;" vertex="1" parent="1">
          <mxGeometry x="55" y="270" width="180" height="100" as="geometry" />
        </mxCell>
        <mxCell id="lxInUS8yCmYX_BWRTLFn-153" value="Commonly used Context provider" style="rounded=0;whiteSpace=wrap;html=1;fontSize=18;" vertex="1" parent="1">
          <mxGeometry x="335" y="275" width="150" height="90" as="geometry" />
        </mxCell>
        <mxCell id="lxInUS8yCmYX_BWRTLFn-158" value="" style="edgeStyle=orthogonalEdgeStyle;rounded=0;orthogonalLoop=1;jettySize=auto;html=1;fontSize=18;" edge="1" parent="1" source="lxInUS8yCmYX_BWRTLFn-155" target="lxInUS8yCmYX_BWRTLFn-157">
          <mxGeometry relative="1" as="geometry" />
        </mxCell>
        <mxCell id="lxInUS8yCmYX_BWRTLFn-160" value="" style="edgeStyle=orthogonalEdgeStyle;rounded=0;orthogonalLoop=1;jettySize=auto;html=1;fontSize=18;" edge="1" parent="1" source="lxInUS8yCmYX_BWRTLFn-155" target="lxInUS8yCmYX_BWRTLFn-159">
          <mxGeometry relative="1" as="geometry" />
        </mxCell>
        <mxCell id="lxInUS8yCmYX_BWRTLFn-162" style="edgeStyle=orthogonalEdgeStyle;rounded=0;orthogonalLoop=1;jettySize=auto;html=1;fontSize=18;" edge="1" parent="1" source="lxInUS8yCmYX_BWRTLFn-155">
          <mxGeometry relative="1" as="geometry">
            <mxPoint x="610" y="580" as="targetPoint" />
            <Array as="points">
              <mxPoint x="680" y="510" />
              <mxPoint x="610" y="510" />
            </Array>
          </mxGeometry>
        </mxCell>
        <mxCell id="lxInUS8yCmYX_BWRTLFn-164" style="edgeStyle=orthogonalEdgeStyle;rounded=0;orthogonalLoop=1;jettySize=auto;html=1;fontSize=18;" edge="1" parent="1" source="lxInUS8yCmYX_BWRTLFn-155" target="lxInUS8yCmYX_BWRTLFn-163">
          <mxGeometry relative="1" as="geometry" />
        </mxCell>
        <mxCell id="lxInUS8yCmYX_BWRTLFn-166" style="edgeStyle=orthogonalEdgeStyle;rounded=0;orthogonalLoop=1;jettySize=auto;html=1;fontSize=18;" edge="1" parent="1" source="lxInUS8yCmYX_BWRTLFn-155">
          <mxGeometry relative="1" as="geometry">
            <mxPoint x="1030" y="580" as="targetPoint" />
          </mxGeometry>
        </mxCell>
        <mxCell id="lxInUS8yCmYX_BWRTLFn-155" value="Feature Name (login)" style="rounded=0;whiteSpace=wrap;html=1;fontSize=18;" vertex="1" parent="1">
          <mxGeometry x="600" y="370" width="250" height="60" as="geometry" />
        </mxCell>
        <mxCell id="lxInUS8yCmYX_BWRTLFn-157" value="Components" style="rounded=0;whiteSpace=wrap;html=1;fontSize=18;" vertex="1" parent="1">
          <mxGeometry x="80" y="590" width="160" height="60" as="geometry" />
        </mxCell>
        <mxCell id="lxInUS8yCmYX_BWRTLFn-159" value="Context" style="rounded=0;whiteSpace=wrap;html=1;fontSize=18;" vertex="1" parent="1">
          <mxGeometry x="300" y="590" width="160" height="60" as="geometry" />
        </mxCell>
        <mxCell id="lxInUS8yCmYX_BWRTLFn-161" value="Hooks" style="rounded=0;whiteSpace=wrap;html=1;fontSize=18;" vertex="1" parent="1">
          <mxGeometry x="520" y="590" width="160" height="60" as="geometry" />
        </mxCell>
        <mxCell id="lxInUS8yCmYX_BWRTLFn-163" value="Services" style="rounded=0;whiteSpace=wrap;html=1;fontSize=18;" vertex="1" parent="1">
          <mxGeometry x="740" y="590" width="160" height="60" as="geometry" />
        </mxCell>
        <mxCell id="lxInUS8yCmYX_BWRTLFn-165" value="Index.ts&lt;br&gt;(To export comps, hooks, context if needed)" style="rounded=0;whiteSpace=wrap;html=1;fontSize=18;" vertex="1" parent="1">
          <mxGeometry x="940" y="590" width="200" height="120" as="geometry" />
        </mxCell>
        <mxCell id="lxInUS8yCmYX_BWRTLFn-167" value="__Test__" style="rounded=0;whiteSpace=wrap;html=1;fontSize=18;" vertex="1" parent="1">
          <mxGeometry x="1010" y="290" width="100" height="50" as="geometry" />
        </mxCell>
        <mxCell id="lxInUS8yCmYX_BWRTLFn-169" value="hook.ts" style="rounded=0;whiteSpace=wrap;html=1;fontSize=18;" vertex="1" parent="1">
          <mxGeometry x="1160" y="290" width="100" height="50" as="geometry" />
        </mxCell>
        <mxCell id="lxInUS8yCmYX_BWRTLFn-171" value="lib.js" style="rounded=0;whiteSpace=wrap;html=1;fontSize=18;" vertex="1" parent="1">
          <mxGeometry x="1340" y="340" width="100" height="50" as="geometry" />
        </mxCell>
        <mxCell id="lxInUS8yCmYX_BWRTLFn-174" value="Page.tsx" style="rounded=0;whiteSpace=wrap;html=1;fontSize=18;" vertex="1" parent="1">
          <mxGeometry x="1550" y="290" width="100" height="50" as="geometry" />
        </mxCell>
        <mxCell id="lxInUS8yCmYX_BWRTLFn-177" value="" style="edgeStyle=orthogonalEdgeStyle;rounded=0;orthogonalLoop=1;jettySize=auto;html=1;fontSize=18;" edge="1" parent="1" source="lxInUS8yCmYX_BWRTLFn-175" target="lxInUS8yCmYX_BWRTLFn-176">
          <mxGeometry relative="1" as="geometry" />
        </mxCell>
        <mxCell id="lxInUS8yCmYX_BWRTLFn-175" value="Services" style="rounded=0;whiteSpace=wrap;html=1;fontSize=18;" vertex="1" parent="1">
          <mxGeometry x="1740" y="160" width="100" height="50" as="geometry" />
        </mxCell>
        <mxCell id="lxInUS8yCmYX_BWRTLFn-176" value="service.ts&lt;br&gt;(like analytics)" style="rounded=0;whiteSpace=wrap;html=1;fontSize=18;" vertex="1" parent="1">
          <mxGeometry x="1700" y="290" width="180" height="100" as="geometry" />
        </mxCell>
        <mxCell id="lxInUS8yCmYX_BWRTLFn-180" value="" style="edgeStyle=orthogonalEdgeStyle;rounded=0;orthogonalLoop=1;jettySize=auto;html=1;fontSize=18;" edge="1" parent="1" source="lxInUS8yCmYX_BWRTLFn-178" target="lxInUS8yCmYX_BWRTLFn-179">
          <mxGeometry relative="1" as="geometry" />
        </mxCell>
        <mxCell id="lxInUS8yCmYX_BWRTLFn-182" value="" style="edgeStyle=orthogonalEdgeStyle;rounded=0;orthogonalLoop=1;jettySize=auto;html=1;fontSize=18;" edge="1" parent="1" source="lxInUS8yCmYX_BWRTLFn-178" target="lxInUS8yCmYX_BWRTLFn-181">
          <mxGeometry relative="1" as="geometry" />
        </mxCell>
        <mxCell id="lxInUS8yCmYX_BWRTLFn-178" value="Utils" style="rounded=0;whiteSpace=wrap;html=1;fontSize=18;" vertex="1" parent="1">
          <mxGeometry x="2030" y="160" width="100" height="50" as="geometry" />
        </mxCell>
        <mxCell id="lxInUS8yCmYX_BWRTLFn-179" value="__Test__" style="rounded=0;whiteSpace=wrap;html=1;fontSize=18;" vertex="1" parent="1">
          <mxGeometry x="1940" y="290" width="100" height="50" as="geometry" />
        </mxCell>
        <mxCell id="lxInUS8yCmYX_BWRTLFn-181" value="util.ts" style="rounded=0;whiteSpace=wrap;html=1;fontSize=18;" vertex="1" parent="1">
          <mxGeometry x="2130" y="290" width="100" height="50" as="geometry" />
        </mxCell>
      </root>
    </mxGraphModel>
  </diagram>
</mxfile>
